<?xml version="1.0" standalone="no"?>
<!DOCTYPE svg PUBLIC "-//W3C//DTD SVG 20010904//EN"
 "http://www.w3.org/TR/2001/REC-SVG-20010904/DTD/svg10.dtd">
<svg version="1.0" xmlns="http://www.w3.org/2000/svg"
 width="1024.000000pt" height="1024.000000pt" viewBox="0 0 1024.000000 1024.000000"
 preserveAspectRatio="xMidYMid meet">

<g transform="translate(0.000000,1024.000000) scale(0.100000,-0.100000)"
fill="#000000" stroke="none">
<path d="M4688 9625 c-1169 -111 -2219 -659 -2979 -1555 -447 -528 -756 -1125
-924 -1788 -151 -593 -180 -1278 -79 -1877 94 -559 294 -1088 606 -1605 270
-445 670 -888 1097 -1213 692 -527 1441 -821 2301 -902 224 -22 743 -16 950
10 382 47 757 141 1100 277 159 62 492 227 635 313 662 399 1221 966 1594
1618 318 554 497 1095 578 1747 25 206 25 810 0 1020 -69 568 -204 1025 -444
1505 -198 396 -428 726 -733 1050 -743 792 -1659 1254 -2755 1391 -182 22
-747 28 -947 9z m613 -255 c1055 -49 2003 -456 2752 -1179 1070 -1034 1510
-2590 1147 -4058 -147 -597 -417 -1143 -808 -1633 -147 -184 -456 -494 -631
-633 -494 -393 -1021 -659 -1596 -806 -496 -127 -1063 -161 -1580 -95 -1243
158 -2356 877 -3038 1961 -87 140 -239 439 -315 623 -433 1044 -428 2211 14
3261 281 669 699 1214 1289 1683 651 518 1511 837 2360 876 88 4 169 7 180 8
11 1 113 -3 226 -8z"/>
<path d="M3345 7464 c-162 -23 -240 -46 -349 -100 -97 -49 -170 -99 -244 -169
-129 -120 -202 -239 -202 -332 0 -44 4 -56 30 -82 36 -36 85 -47 133 -32 39
13 53 27 91 93 39 70 128 161 208 214 209 139 463 173 661 88 87 -38 144 -42
181 -13 68 53 67 141 -2 199 -50 42 -184 106 -251 119 -61 13 -211 21 -256 15z"/>
<path d="M6692 7460 c-127 -18 -226 -58 -309 -126 -74 -61 -77 -148 -8 -202
37 -30 93 -28 160 3 119 57 303 69 450 30 186 -49 382 -191 451 -326 54 -108
160 -130 229 -47 65 77 -6 242 -172 398 -173 164 -400 261 -638 273 -55 3
-128 2 -163 -3z"/>
<path d="M3423 6576 c-294 -56 -527 -239 -673 -527 -99 -195 -104 -292 -20
-363 26 -21 42 -26 85 -26 46 0 60 5 89 30 18 17 52 66 75 109 80 154 174 255
296 318 177 92 371 96 538 12 140 -71 231 -167 317 -336 57 -111 90 -137 168
-131 79 7 132 67 132 152 0 84 -87 286 -176 406 -125 171 -313 302 -496 345
-93 22 -250 27 -335 11z"/>
<path d="M6535 6576 c-178 -35 -315 -109 -449 -242 -181 -182 -316 -487 -262
-592 27 -51 62 -75 118 -80 74 -5 111 22 163 118 63 117 119 193 187 254 181
164 437 202 651 95 135 -66 233 -168 312 -320 58 -112 99 -149 164 -149 82 0
151 66 151 146 0 76 -72 248 -153 369 -53 79 -167 196 -243 251 -78 56 -194
111 -286 135 -96 26 -262 33 -353 15z"/>
<path d="M2293 5443 c9 -2 23 -2 30 0 6 3 -1 5 -18 5 -16 0 -22 -2 -12 -5z"/>
<path d="M2473 5443 c9 -2 23 -2 30 0 6 3 -1 5 -18 5 -16 0 -22 -2 -12 -5z"/>
<path d="M7753 5443 c9 -2 23 -2 30 0 6 3 -1 5 -18 5 -16 0 -22 -2 -12 -5z"/>
<path d="M7933 5443 c9 -2 25 -2 35 0 9 3 1 5 -18 5 -19 0 -27 -2 -17 -5z"/>
<path d="M2228 5433 c6 -2 18 -2 25 0 6 3 1 5 -13 5 -14 0 -19 -2 -12 -5z"/>
<path d="M2538 5433 c7 -3 16 -2 19 1 4 3 -2 6 -13 5 -11 0 -14 -3 -6 -6z"/>
<path d="M8008 5433 c7 -3 16 -2 19 1 4 3 -2 6 -13 5 -11 0 -14 -3 -6 -6z"/>
<path d="M2188 5423 c7 -3 16 -2 19 1 4 3 -2 6 -13 5 -11 0 -14 -3 -6 -6z"/>
<path d="M2148 5413 c7 -3 16 -2 19 1 4 3 -2 6 -13 5 -11 0 -14 -3 -6 -6z"/>
<path d="M8088 5413 c7 -3 16 -2 19 1 4 3 -2 6 -13 5 -11 0 -14 -3 -6 -6z"/>
<path d="M2070 5390 c-8 -5 -10 -10 -5 -10 6 0 17 5 25 10 8 5 11 10 5 10 -5
0 -17 -5 -25 -10z"/>
<path d="M2660 5396 c0 -2 7 -7 16 -10 8 -3 12 -2 9 4 -6 10 -25 14 -25 6z"/>
<path d="M7554 5384 c-18 -14 -18 -14 6 -3 31 14 36 19 24 19 -6 0 -19 -7 -30
-16z"/>
<path d="M1998 5359 c-21 -11 -38 -22 -38 -24 0 -5 79 32 89 41 12 11 -18 1
-51 -17z"/>
<path d="M2700 5378 c3 -2 28 -24 55 -48 48 -42 48 -42 15 -6 -19 21 -44 42
-55 48 -11 6 -18 9 -15 6z"/>
<path d="M7484 5334 l-39 -35 43 32 c38 30 48 39 39 39 -2 0 -21 -16 -43 -36z"/>
<path d="M8280 5336 c0 -3 9 -10 20 -16 11 -6 20 -8 20 -6 0 3 -9 10 -20 16
-11 6 -20 8 -20 6z"/>
<path d="M8360 5283 c19 -15 55 -46 80 -68 l45 -39 -34 36 c-18 20 -54 50 -80
68 -39 27 -41 27 -11 3z"/>
<path d="M7419 5245 c-11 -25 -19 -50 -17 -55 2 -4 13 16 24 46 26 66 21 72
-7 9z"/>
<path d="M1849 5263 c-13 -16 -12 -17 4 -4 9 7 17 15 17 17 0 8 -8 3 -21 -13z"/>
<path d="M2806 5267 c3 -10 9 -15 12 -12 3 3 0 11 -7 18 -10 9 -11 8 -5 -6z"/>
<path d="M1755 5178 l-60 -63 63 60 c58 55 67 65 59 65 -1 0 -29 -28 -62 -62z"/>
<path d="M2843 5135 c0 -27 2 -38 4 -22 2 15 2 37 0 50 -2 12 -4 0 -4 -28z"/>
<path d="M8551 5095 c61 -82 69 -91 44 -48 -11 18 -36 52 -57 75 -30 33 -27
27 13 -27z"/>
<path d="M7392 5115 c0 -16 2 -22 5 -12 2 9 2 23 0 30 -3 6 -5 -1 -5 -18z"/>
<path d="M1679 5093 c-13 -16 -12 -17 4 -4 9 7 17 15 17 17 0 8 -8 3 -21 -13z"/>
<path d="M7402 5060 c0 -14 2 -19 5 -12 2 6 2 18 0 25 -3 6 -5 1 -5 -13z"/>
<path d="M1650 5050 c-6 -11 -8 -20 -6 -20 3 0 10 9 16 20 6 11 8 20 6 20 -3
0 -10 -9 -16 -20z"/>
<path d="M2832 5050 c0 -14 2 -19 5 -12 2 6 2 18 0 25 -3 6 -5 1 -5 -13z"/>
<path d="M3116 5044 c-186 -45 -339 -200 -391 -394 -20 -73 -19 -293 0 -429
56 -382 232 -798 467 -1103 350 -454 858 -772 1417 -889 240 -51 598 -65 838
-34 432 57 847 230 1178 493 98 79 304 281 391 385 216 258 365 566 458 950
46 189 59 305 54 484 -5 167 -20 226 -84 321 -125 189 -321 264 -570 217 -98
-18 -394 -59 -574 -80 -678 -77 -1429 -84 -2130 -19 -209 19 -610 69 -761 94
-134 23 -210 24 -293 4z m285 -263 c209 -43 607 -92 999 -123 223 -18 1277
-18 1485 0 404 34 726 74 937 117 197 41 275 32 354 -37 41 -36 84 -118 84
-161 0 -23 -11 -34 -62 -68 -83 -54 -278 -148 -401 -194 -656 -242 -1666 -320
-2532 -194 -484 70 -946 220 -1218 396 -66 42 -68 45 -62 76 17 76 85 161 155
191 48 21 150 20 261 -3z"/>
<path d="M7411 5020 c-1 -17 45 -120 54 -120 3 0 -2 14 -11 32 -9 17 -22 47
-29 67 -8 20 -14 29 -14 21z"/>
<path d="M1615 4989 c-9 -17 -15 -33 -13 -35 3 -2 12 12 21 31 21 43 13 47 -8
4z"/>
<path d="M2816 5005 c-9 -26 -7 -32 5 -12 6 10 9 21 6 23 -2 3 -7 -2 -11 -11z"/>
<path d="M8621 4990 c14 -31 19 -36 19 -24 0 6 -7 19 -16 30 -14 18 -14 18 -3
-6z"/>
<path d="M2796 4953 c-6 -14 -5 -15 5 -6 7 7 10 15 7 18 -3 3 -9 -2 -12 -12z"/>
<path d="M1586 4925 c-3 -9 -6 -22 -5 -28 0 -7 5 -1 10 12 5 13 8 26 5 28 -2
2 -6 -3 -10 -12z"/>
<path d="M2770 4910 c-6 -11 -8 -20 -6 -20 3 0 10 9 16 20 6 11 8 20 6 20 -3
0 -10 -9 -16 -20z"/>
<path d="M1571 4864 c0 -11 3 -14 6 -6 3 7 2 16 -1 19 -3 4 -6 -2 -5 -13z"/>
<path d="M2724 4843 c-16 -21 -44 -56 -64 -79 -26 -30 -23 -28 12 7 46 48 94
109 85 109 -3 0 -17 -17 -33 -37z"/>
<path d="M8672 4845 c0 -16 2 -22 5 -12 2 9 2 23 0 30 -3 6 -5 -1 -5 -18z"/>
<path d="M7510 4827 c0 -1 35 -36 78 -77 l77 -75 -75 78 c-69 71 -80 82 -80
74z"/>
<path d="M1562 4795 c0 -16 2 -22 5 -12 2 9 2 23 0 30 -3 6 -5 -1 -5 -18z"/>
<path d="M8672 4730 c0 -14 2 -19 5 -12 2 6 2 18 0 25 -3 6 -5 1 -5 -13z"/>
<path d="M1572 4720 c0 -14 2 -19 5 -12 2 6 2 18 0 25 -3 6 -5 1 -5 -13z"/>
<path d="M2579 4693 l-24 -28 28 24 c25 23 32 31 24 31 -2 0 -14 -12 -28 -27z"/>
<path d="M8661 4684 c0 -11 3 -14 6 -6 3 7 2 16 -1 19 -3 4 -6 -2 -5 -13z"/>
<path d="M2497 4636 c-59 -41 -73 -55 -29 -30 33 19 91 63 82 63 -3 0 -27 -15
-53 -33z"/>
<path d="M1590 4654 c0 -6 7 -19 16 -30 14 -18 14 -18 3 6 -14 31 -19 36 -19
24z"/>
<path d="M8641 4633 c-10 -26 -10 -27 4 -9 8 11 15 23 15 28 0 15 -7 8 -19
-19z"/>
<path d="M7710 4646 c0 -2 8 -10 18 -17 15 -13 16 -12 3 4 -13 16 -21 21 -21
13z"/>
<path d="M7750 4616 c0 -3 9 -10 20 -16 11 -6 20 -8 20 -6 0 3 -9 10 -20 16
-11 6 -20 8 -20 6z"/>
<path d="M1650 4565 c19 -19 36 -35 39 -35 3 0 -10 16 -29 35 -19 19 -36 35
-39 35 -3 0 10 -16 29 -35z"/>
<path d="M8589 4563 l-34 -38 38 34 c34 33 42 41 34 41 -2 0 -19 -17 -38 -37z"/>
<path d="M2380 4565 c-25 -13 -41 -24 -37 -25 11 0 87 39 87 45 0 7 0 7 -50
-20z"/>
<path d="M7847 4559 c7 -7 15 -10 18 -7 3 3 -2 9 -12 12 -14 6 -15 5 -6 -5z"/>
<path d="M7910 4530 c8 -5 20 -10 25 -10 6 0 3 5 -5 10 -8 5 -19 10 -25 10 -5
0 -3 -5 5 -10z"/>
<path d="M1700 4525 c0 -7 61 -37 66 -33 2 3 -12 12 -31 21 -19 9 -35 15 -35
12z"/>
<path d="M8500 4505 c-25 -13 -41 -24 -37 -25 11 0 87 39 87 45 0 7 0 7 -50
-20z"/>
<path d="M2250 4510 c-8 -5 -10 -10 -5 -10 6 0 17 5 25 10 8 5 11 10 5 10 -5
0 -17 -5 -25 -10z"/>
<path d="M7960 4510 c8 -5 22 -9 30 -9 10 0 8 3 -5 9 -27 12 -43 12 -25 0z"/>
<path d="M2180 4490 c-20 -6 -21 -8 -5 -8 11 0 29 3 40 8 25 11 -1 11 -35 0z"/>
<path d="M8048 4483 c7 -3 16 -2 19 1 4 3 -2 6 -13 5 -11 0 -14 -3 -6 -6z"/>
<path d="M2128 4473 c7 -3 16 -2 19 1 4 3 -2 6 -13 5 -11 0 -14 -3 -6 -6z"/>
<path d="M8088 4473 c6 -2 18 -2 25 0 6 3 1 5 -13 5 -14 0 -19 -2 -12 -5z"/>
<path d="M8428 4473 c7 -3 16 -2 19 1 4 3 -2 6 -13 5 -11 0 -14 -3 -6 -6z"/>
<path d="M1858 4463 c6 -2 18 -2 25 0 6 3 1 5 -13 5 -14 0 -19 -2 -12 -5z"/>
<path d="M2068 4463 c6 -2 18 -2 25 0 6 3 1 5 -13 5 -14 0 -19 -2 -12 -5z"/>
<path d="M8143 4463 c9 -2 25 -2 35 0 9 3 1 5 -18 5 -19 0 -27 -2 -17 -5z"/>
<path d="M8378 4463 c6 -2 18 -2 25 0 6 3 1 5 -13 5 -14 0 -19 -2 -12 -5z"/>
<path d="M1943 4453 c15 -2 39 -2 55 0 15 2 2 4 -28 4 -30 0 -43 -2 -27 -4z"/>
<path d="M8237 4453 c18 -2 50 -2 70 0 21 2 7 4 -32 4 -38 0 -55 -2 -38 -4z"/>
</g>
</svg>
